<svg xmlns="http://www.w3.org/2000/svg" width="255" height="208" fill="none"><path fill="url(#a)" d="M188.522 135.763a65.547 65.547 0 0 1-5.648 26.668 65.95 65.95 0 0 1-16.026 22.121 67.736 67.736 0 0 1-5.987 4.83 66.142 66.142 0 0 1-8.434 5.135h-.031c-.626.327-1.262.637-1.903.938a64.748 64.748 0 0 1-6.592 2.685c-1.539.509-3.119 1.019-4.715 1.437a67.277 67.277 0 0 1-28.215 1.319 63.994 63.994 0 0 1-3.304-.631l-.924-.209a66.078 66.078 0 0 1-14.513-5.218c-.39-.193-.774-.392-1.159-.591a66.339 66.339 0 0 1-25.48-23.475 65.74 65.74 0 0 1-10.083-33.034 65.703 65.703 0 0 1 8.07-33.575 66.267 66.267 0 0 1 24.018-24.95 66.864 66.864 0 0 1 33.41-9.514 66.883 66.883 0 0 1 33.681 8.518 66.298 66.298 0 0 1 24.758 24.226 65.712 65.712 0 0 1 9.077 33.32Z"/><path fill="url(#b)" d="M139.432 140.542c4.237 4.331 16.58 21.185 16.58 21.185l-7.582 11.04-6.818-21.933-2.18-10.292Z"/><path fill="url(#c)" d="M152.396 194.553c-.626.326-1.262.637-1.904.938-.292.142-.579.275-.877.407a64.326 64.326 0 0 1-5.715 2.278c-1.539.509-3.119 1.019-4.714 1.436a67.265 67.265 0 0 1-28.216 1.32 63.148 63.148 0 0 1-3.304-.632c-4.001 2.741-7.695 5.059-10.142 6.114l.2-1.696.831-7.098 1.924-16.512 7.623-7.322-17.14 1.32s1.801-24.812 8.83-29.917c7.028-5.106 14.4-9.681 14.4-9.681a9.64 9.64 0 0 0 2.868 1.269c2.437.669 4.971.926 7.495.759 3.006-.138 6.012-2.914 6.156-3.057 0 0 4.719.932 8.721 6.083a24.393 24.393 0 0 1 4.212 8.896c.985 3.765 2.734 12.559 4.725 23.182 1.303 6.837 2.672 14.419 4.027 21.913Z"/><path fill="url(#d)" d="m156.012 161.747 7.316 8.514 25.727-25.363.975-5.192 5.13-4.427-2.283 6.751v8.793s-19.843 31.946-25.312 33.591c-6.397 1.931-19.125-11.657-19.125-11.657l7.572-11.01Z"/><path fill="#7E57C2" d="m129.306 173.389 5.966 14.266 7.71-3.292-5.653-13.96-8.023 2.986Z"/><path fill="url(#e)" d="M137.616 182.606c-.959.784-2.391.601-4.166.692a10.243 10.243 0 0 0-6.464 2.517c-2.385 1.992-9.054 7.205-15.723 11.963-1.211.861-2.422 1.712-3.591 2.548-4.002 2.741-7.695 5.059-10.142 6.113a6.132 6.132 0 0 1-2.052.597c-3.427.086-4.161-7.047-4.371-12.738-.067-1.89-.082-3.617-.118-4.865-.144-4.993 0-14.266 0-14.266l17.139-1.325-1.816 11.79-.318 2.084v.015l5.13-1.885.159-.056 18.212-6.72 1.257-2.155.8 2.037h.077l7.798-1.018s.133 3.087-1.811 4.672Z"/><path fill="url(#f)" d="M133.681 108.25c-.447-1.212-.831-2.038-.944-2.282v-.061s-.395.968-3.371.733c-2.975-.234-3.96-1.701-3.96-1.701s.934 3.179-2.611 4.539c-3.412 1.315-4.756.464-4.848.403.179.193 2.847 3.026 1.077 5.273-1.831 2.328-5.951 1.87-5.951 1.87v.03a36.052 36.052 0 0 0 1.739 3.409c.339.581.672 1.116 1.026 1.615v.036a11.648 11.648 0 0 0 3.591 3.653 17.48 17.48 0 0 1-5.237 9.756c.928.482 1.886.905 2.867 1.269 1.914.718 4.484 1.432 6.777 1.233a10.745 10.745 0 0 0 6.885-3.526l-1.175-4.478-1.057-4.035c9.552-2.42 6.926-12.946 5.192-17.736Zm-5.725 17.883.169-.04.272-.077a4.61 4.61 0 0 1-1.242.337c.221-.057.447-.118.683-.189l.118-.031Z"/><path fill="url(#g)" d="M139.432 105.774c-3.94 3.597-5.643 2.583-5.751 2.487v-.011c-.446-1.212-.831-2.038-.938-2.282l-.026-.061s-.4.968-3.376.733c-2.975-.234-3.955-1.701-3.955-1.701s.934 3.179-2.611 4.539c-3.417 1.315-4.761.464-4.848.403.18.188 2.847 3.021 1.077 5.268-1.831 2.328-5.951 1.875-5.951 1.875v.025a36.136 36.136 0 0 0 1.739 3.414c.342.577.684 1.116 1.026 1.615v.036s-1.405 2.746-3.914 2.69c-2.508-.056-2.565-2.548-2.565-2.548s-1.775 3.179-7.259.117-1.826-7.499-1.826-7.499-3.889-2.955-3.889-7.383c0-4.427 6.054-7.795 6.054-7.795s-2.165-5.14 1.487-7.974c3.653-2.832 9.142-.912 9.142-.912s-.107-6.577 5.484-6.47c5.592.107 6.859 3.505 6.859 3.505s5.028-3.862 10.004-.224 2.929 9.981 2.929 9.981 5.217 4.427 1.108 8.172Z"/><path fill="#000" d="M129.587 130.006c-2.385-.749-6.628-3.608-6.628-3.608a16.01 16.01 0 0 0 5.012-.264l.169-.041.329-.097h.046l1.072 4.01ZM110.416 158.547l-2.313 15.285-1.816 11.79-4.227 3.49 9.198-3.317s-2.386-6.766-.842-27.248ZM107.656 200.3c1.093.24 2.191.449 3.304.632.056-1.044.159-2.099.303-3.154l-3.607 2.522Z" opacity=".15"/><g filter="url(#h)"><path fill="#56CCF2" d="M85.423 10h-27.43c-3.786 0-6.854 3.047-6.854 6.807v27.242c0 3.76 3.068 6.807 6.853 6.807h27.431c3.785 0 6.854-3.047 6.854-6.807V16.807c0-3.76-3.069-6.807-6.854-6.807Z"/></g><g clip-path="url(#i)"><path fill="#fff" d="M82 29h-4.17l3.24-3.24-1.41-1.42L75 29h-2v-2l4.66-4.66-1.42-1.41L73 24.17V20h-2v4.17l-3.24-3.24-1.42 1.41L71 27v2h-2l-4.66-4.66-1.41 1.42L66.17 29H62v2h4.17l-3.24 3.24 1.41 1.42L69 31h2v2l-4.66 4.66 1.42 1.41L71 35.83V40h2v-4.17l3.24 3.24 1.42-1.41L73 33v-2h2l4.66 4.66 1.41-1.42L77.83 31H82v-2Z"/></g><g filter="url(#j)"><path fill="#F2C94C" d="M227.284 113h-27.43c-3.785 0-6.854 3.048-6.854 6.807v27.242c0 3.76 3.069 6.807 6.854 6.807h27.43c3.786 0 6.854-3.047 6.854-6.807v-27.242c0-3.759-3.068-6.807-6.854-6.807Z"/></g><path fill="#fff" d="M223 130c0-5-4-9-9-9s-9 4-9 9c0 3.1 1.6 5.9 4 7.5v2.5c0 1.3.8 2.4 2 2.8v.2c0 1.7 1.3 3 3 3s3-1.3 3-3v-.2c1.2-.4 2-1.5 2-2.8v-2.5c2.4-1.6 4-4.4 4-7.5Zm-16 0c0-3.9 3.1-7 7-7s7 3.1 7 7c0 3.5-2.6 6.4-6 6.9v-2.5l1.7-1.7c.4-.4.4-1 0-1.4-.4-.4-1-.4-1.4 0l-1.3 1.3-1.3-1.3c-.4-.4-1-.4-1.4 0-.4.4-.4 1 0 1.4l1.7 1.7v2.5c-3.4-.5-6-3.4-6-6.9Zm7 14c-.6 0-1-.4-1-1h2c0 .6-.4 1-1 1Zm3-4c0 .6-.4 1-1 1h-4c-.6 0-1-.4-1-1v-1.5c.9.3 1.9.5 3 .5s2.1-.2 3-.5v1.5Z"/><g filter="url(#k)"><path fill="#F58A8A" d="M44.284 113h-27.43c-3.785 0-6.854 3.048-6.854 6.807v27.242c0 3.76 3.069 6.807 6.854 6.807h27.43c3.786 0 6.854-3.047 6.854-6.807v-27.242c0-3.759-3.068-6.807-6.854-6.807Z"/></g><g clip-path="url(#l)"><path fill="#fff" d="M37 130h-1v-2c0-2.76-2.24-5-5-5s-5 2.24-5 5v2h-1c-1.1 0-2 .9-2 2v10c0 1.1.9 2 2 2h12c1.1 0 2-.9 2-2v-10c0-1.1-.9-2-2-2Zm-6 9c-1.1 0-2-.9-2-2s.9-2 2-2 2 .9 2 2-.9 2-2 2Zm3.1-9h-6.2v-2c0-1.71 1.39-3.1 3.1-3.1 1.71 0 3.1 1.39 3.1 3.1v2Z"/></g><g filter="url(#m)"><path fill="#6FCF97" d="M182.284 10h-27.43c-3.785 0-6.854 3.047-6.854 6.807v27.242c0 3.76 3.069 6.807 6.854 6.807h27.43c3.786 0 6.854-3.047 6.854-6.807V16.807c0-3.76-3.068-6.807-6.854-6.807Z"/></g><path fill="#fff" d="M174.311 24.896h-16.332v10.207h16.332V24.896ZM178.713 26.928l-3.605 1.515V31.6l3.605 1.515h1.307v-6.187h-1.307Z"/><defs><linearGradient id="a" x1="122.273" x2="120.029" y1="76.865" y2="207.076" gradientUnits="userSpaceOnUse"><stop stop-color="#fff" stop-opacity="0"/><stop offset="1" stop-color="#64B5F6" stop-opacity=".6"/></linearGradient><linearGradient id="b" x1="134.409" x2="152.559" y1="136.165" y2="168.279" gradientUnits="userSpaceOnUse"><stop stop-color="#E57373"/><stop offset="1" stop-color="#AD1457"/></linearGradient><linearGradient id="c" x1="28141.2" x2="26229.2" y1="39794.5" y2="49295.9" gradientUnits="userSpaceOnUse"><stop stop-color="#E57373"/><stop offset="1" stop-color="#AD1457"/></linearGradient><linearGradient id="d" x1="202.122" x2="152.589" y1="147.94" y2="176.833" gradientUnits="userSpaceOnUse"><stop stop-color="#FFF8E1"/><stop offset="1" stop-color="#FFCC80"/></linearGradient><linearGradient id="e" x1="21652.4" x2="18981.7" y1="22319.6" y2="20506.4" gradientUnits="userSpaceOnUse"><stop stop-color="#FFF8E1"/><stop offset="1" stop-color="#FFCC80"/></linearGradient><linearGradient id="f" x1="138.703" x2="111.661" y1="113.439" y2="124.652" gradientUnits="userSpaceOnUse"><stop stop-color="#FFF8E1"/><stop offset="1" stop-color="#FFCC80"/></linearGradient><linearGradient id="g" x1="132.486" x2="101.053" y1="84.146" y2="126.911" gradientUnits="userSpaceOnUse"><stop stop-color="#FFB74D"/><stop offset="1" stop-color="#F4511E"/></linearGradient><filter id="h" width="71.138" height="70.856" x="41.139" y="0" color-interpolation-filters="sRGB" filterUnits="userSpaceOnUse"><feFlood flood-opacity="0" result="BackgroundImageFix"/><feColorMatrix in="SourceAlpha" result="hardAlpha" values="0 0 0 0 0 0 0 0 0 0 0 0 0 0 0 0 0 0 127 0"/><feOffset dx="5" dy="5"/><feGaussianBlur stdDeviation="7.5"/><feColorMatrix values="0 0 0 0 0 0 0 0 0 0 0 0 0 0 0 0 0 0 0.15 0"/><feBlend in2="BackgroundImageFix" result="effect1_dropShadow_0_1655"/><feBlend in="SourceGraphic" in2="effect1_dropShadow_0_1655" result="shape"/></filter><filter id="j" width="71.138" height="70.856" x="183" y="103" color-interpolation-filters="sRGB" filterUnits="userSpaceOnUse"><feFlood flood-opacity="0" result="BackgroundImageFix"/><feColorMatrix in="SourceAlpha" result="hardAlpha" values="0 0 0 0 0 0 0 0 0 0 0 0 0 0 0 0 0 0 127 0"/><feOffset dx="5" dy="5"/><feGaussianBlur stdDeviation="7.5"/><feColorMatrix values="0 0 0 0 0 0 0 0 0 0 0 0 0 0 0 0 0 0 0.15 0"/><feBlend in2="BackgroundImageFix" result="effect1_dropShadow_0_1655"/><feBlend in="SourceGraphic" in2="effect1_dropShadow_0_1655" result="shape"/></filter><filter id="k" width="71.138" height="70.856" x="0" y="103" color-interpolation-filters="sRGB" filterUnits="userSpaceOnUse"><feFlood flood-opacity="0" result="BackgroundImageFix"/><feColorMatrix in="SourceAlpha" result="hardAlpha" values="0 0 0 0 0 0 0 0 0 0 0 0 0 0 0 0 0 0 127 0"/><feOffset dx="5" dy="5"/><feGaussianBlur stdDeviation="7.5"/><feColorMatrix values="0 0 0 0 0 0 0 0 0 0 0 0 0 0 0 0 0 0 0.15 0"/><feBlend in2="BackgroundImageFix" result="effect1_dropShadow_0_1655"/><feBlend in="SourceGraphic" in2="effect1_dropShadow_0_1655" result="shape"/></filter><filter id="m" width="71.138" height="70.856" x="138" y="0" color-interpolation-filters="sRGB" filterUnits="userSpaceOnUse"><feFlood flood-opacity="0" result="BackgroundImageFix"/><feColorMatrix in="SourceAlpha" result="hardAlpha" values="0 0 0 0 0 0 0 0 0 0 0 0 0 0 0 0 0 0 127 0"/><feOffset dx="5" dy="5"/><feGaussianBlur stdDeviation="7.5"/><feColorMatrix values="0 0 0 0 0 0 0 0 0 0 0 0 0 0 0 0 0 0 0.15 0"/><feBlend in2="BackgroundImageFix" result="effect1_dropShadow_0_1655"/><feBlend in="SourceGraphic" in2="effect1_dropShadow_0_1655" result="shape"/></filter><clipPath id="i"><path fill="#fff" d="M60 18h24v24H60z"/></clipPath><clipPath id="l"><path fill="#fff" d="M19 122h24v24H19z"/></clipPath></defs></svg>